<svg xmlns="http://www.w3.org/2000/svg" viewBox="0 0 256 64" role="img" aria-label="EnvNeo wordmark (ENV NEO)">
  <g fill="currentColor">
    <rect x="0" y="12" width="6" height="40" />
    <rect x="0" y="12" width="22" height="6" />
    <rect x="0" y="30" width="18" height="6" />
    <rect x="0" y="46" width="22" height="6" />

    <rect x="30" y="12" width="6" height="40" />
    <rect x="46" y="12" width="6" height="40" />
    <path d="M36 52h6L52 12h-6L36 52z" />

    <path d="M60 12h6l8 40h-6L60 12z" />
    <path d="M82 12h-6l-8 40h6l8-40z" />

    <rect x="96" y="12" width="6" height="40" />
    <rect x="112" y="12" width="6" height="40" />
    <path d="M102 52h6l10-40h-6l-10 40z" />

    <rect x="126" y="12" width="6" height="40" />
    <rect x="126" y="12" width="22" height="6" />
    <rect x="126" y="30" width="18" height="6" />
    <rect x="126" y="46" width="22" height="6" />

    <path fill-rule="evenodd" d="M156 12h22v40h-22V12zm6 6h10v28h-10V18z" />
  </g>
</svg>
