<svg xmlns="http://www.w3.org/2000/svg" xmlns:xlink="http://www.w3.org/1999/xlink" width="500" zoomAndPan="magnify" viewBox="0 0 375 374.999991" height="500" preserveAspectRatio="xMidYMid meet" version="1.0"><defs><g/><clipPath id="3f85f412bc"><path d="M 101.628906 174.050781 L 122.207031 174.050781 L 122.207031 194.777344 L 101.628906 194.777344 Z M 101.628906 174.050781 " clip-rule="nonzero"/></clipPath><clipPath id="1696913f53"><path d="M 0.628906 0.0507812 L 21.207031 0.0507812 L 21.207031 20.777344 L 0.628906 20.777344 Z M 0.628906 0.0507812 " clip-rule="nonzero"/></clipPath><clipPath id="15b388ebe4"><rect x="0" width="22" y="0" height="21"/></clipPath><clipPath id="ba76f5ac84"><path d="M 121.925781 194.777344 L 134.894531 194.777344 L 134.894531 207.898438 L 121.925781 207.898438 Z M 121.925781 194.777344 " clip-rule="nonzero"/></clipPath><clipPath id="58de3d61d0"><path d="M 0.925781 0.777344 L 13.894531 0.777344 L 13.894531 13.898438 L 0.925781 13.898438 Z M 0.925781 0.777344 " clip-rule="nonzero"/></clipPath><clipPath id="a56accdb73"><rect x="0" width="14" y="0" height="14"/></clipPath><clipPath id="87fc2e8271"><path d="M 122.210938 130.128906 L 142.789062 130.128906 L 142.789062 150.859375 L 122.210938 150.859375 Z M 122.210938 130.128906 " clip-rule="nonzero"/></clipPath><clipPath id="d66505f013"><path d="M 0.210938 0.128906 L 20.789062 0.128906 L 20.789062 20.859375 L 0.210938 20.859375 Z M 0.210938 0.128906 " clip-rule="nonzero"/></clipPath><clipPath id="578d4bff92"><rect x="0" width="21" y="0" height="21"/></clipPath><clipPath id="f3fed86fd9"><rect x="0" width="218" y="0" height="343"/></clipPath><clipPath id="b4c90234d9"><path d="M 68.09375 174.050781 L 81.0625 174.050781 L 81.0625 187.167969 L 68.09375 187.167969 Z M 68.09375 174.050781 " clip-rule="nonzero"/></clipPath><clipPath id="3bd91e4a01"><path d="M 0.09375 0.0507812 L 13.0625 0.0507812 L 13.0625 13.167969 L 0.09375 13.167969 Z M 0.09375 0.0507812 " clip-rule="nonzero"/></clipPath><clipPath id="ea07a6a2b6"><rect x="0" width="14" y="0" height="14"/></clipPath><clipPath id="fd14d3bf06"><path d="M 81.050781 153.320312 L 101.628906 153.320312 L 101.628906 174.050781 L 81.050781 174.050781 Z M 81.050781 153.320312 " clip-rule="nonzero"/></clipPath><clipPath id="0df6d35178"><path d="M 0.0507812 0.320312 L 20.628906 0.320312 L 20.628906 21.050781 L 0.0507812 21.050781 Z M 0.0507812 0.320312 " clip-rule="nonzero"/></clipPath><clipPath id="af015ffc2e"><rect x="0" width="21" y="0" height="22"/></clipPath><clipPath id="10649074de"><path d="M 101.628906 109.398438 L 122.207031 109.398438 L 122.207031 130.128906 L 101.628906 130.128906 Z M 101.628906 109.398438 " clip-rule="nonzero"/></clipPath><clipPath id="e8814b64b9"><path d="M 0.628906 0.398438 L 21.207031 0.398438 L 21.207031 21.128906 L 0.628906 21.128906 Z M 0.628906 0.398438 " clip-rule="nonzero"/></clipPath><clipPath id="b7eb1d1c53"><rect x="0" width="22" y="0" height="22"/></clipPath><clipPath id="54eb2adca9"><path d="M 127.109375 90.421875 L 143.460938 90.421875 L 143.460938 106.921875 L 127.109375 106.921875 Z M 127.109375 90.421875 " clip-rule="nonzero"/></clipPath><clipPath id="b1b28f9764"><path d="M 0.109375 0.421875 L 16.460938 0.421875 L 16.460938 16.921875 L 0.109375 16.921875 Z M 0.109375 0.421875 " clip-rule="nonzero"/></clipPath><clipPath id="4ed600cd61"><rect x="0" width="17" y="0" height="17"/></clipPath><clipPath id="38947a6986"><path d="M 65.644531 133.933594 L 78.613281 133.933594 L 78.613281 147.054688 L 65.644531 147.054688 Z M 65.644531 133.933594 " clip-rule="nonzero"/></clipPath><clipPath id="781b0208d4"><path d="M 0.644531 0.933594 L 13.613281 0.933594 L 13.613281 14.054688 L 0.644531 14.054688 Z M 0.644531 0.933594 " clip-rule="nonzero"/></clipPath><clipPath id="55b10c9b87"><rect x="0" width="14" y="0" height="15"/></clipPath><clipPath id="59309bc25f"><path d="M 81.0625 90.421875 L 94.03125 90.421875 L 94.03125 103.539062 L 81.0625 103.539062 Z M 81.0625 90.421875 " clip-rule="nonzero"/></clipPath><clipPath id="a88fd42801"><path d="M 0.0625 0.421875 L 13.03125 0.421875 L 13.03125 13.539062 L 0.0625 13.539062 Z M 0.0625 0.421875 " clip-rule="nonzero"/></clipPath><clipPath id="e7a78a5591"><rect x="0" width="14" y="0" height="14"/></clipPath><clipPath id="1fcd614131"><path d="M 52.382812 87.925781 L 65.644531 87.925781 L 65.644531 101.1875 L 52.382812 101.1875 Z M 52.382812 87.925781 " clip-rule="nonzero"/></clipPath><clipPath id="708a6ee3b1"><path d="M 59.015625 87.925781 L 61.125 92.449219 L 65.644531 94.558594 L 61.125 96.667969 L 59.015625 101.1875 L 56.90625 96.667969 L 52.382812 94.558594 L 56.90625 92.449219 Z M 59.015625 87.925781 " clip-rule="nonzero"/></clipPath><clipPath id="d91d6d5ef5"><path d="M 0.382812 0.925781 L 13.644531 0.925781 L 13.644531 14.1875 L 0.382812 14.1875 Z M 0.382812 0.925781 " clip-rule="nonzero"/></clipPath><clipPath id="d44ae72125"><path d="M 7.015625 0.925781 L 9.125 5.449219 L 13.644531 7.558594 L 9.125 9.667969 L 7.015625 14.1875 L 4.90625 9.667969 L 0.382812 7.558594 L 4.90625 5.449219 Z M 7.015625 0.925781 " clip-rule="nonzero"/></clipPath><clipPath id="8ecfce0a83"><rect x="0" width="14" y="0" height="15"/></clipPath><clipPath id="e1c8116453"><path d="M 36.375 72.949219 L 56.363281 72.949219 L 56.363281 92.9375 L 36.375 92.9375 Z M 36.375 72.949219 " clip-rule="nonzero"/></clipPath><clipPath id="5a0e76f4c6"><path d="M 46.367188 72.949219 L 49.546875 79.761719 L 56.363281 82.941406 L 49.546875 86.125 L 46.367188 92.9375 L 43.1875 86.125 L 36.375 82.941406 L 43.1875 79.761719 Z M 46.367188 72.949219 " clip-rule="nonzero"/></clipPath><clipPath id="f0a01e4058"><path d="M 0.375 0.949219 L 20.363281 0.949219 L 20.363281 20.9375 L 0.375 20.9375 Z M 0.375 0.949219 " clip-rule="nonzero"/></clipPath><clipPath id="02203d91ee"><path d="M 10.367188 0.949219 L 13.546875 7.761719 L 20.363281 10.941406 L 13.546875 14.125 L 10.367188 20.9375 L 7.1875 14.125 L 0.375 10.941406 L 7.1875 7.761719 Z M 10.367188 0.949219 " clip-rule="nonzero"/></clipPath><clipPath id="466abbbc03"><rect x="0" width="21" y="0" height="21"/></clipPath><clipPath id="e5e3784ebd"><path d="M 36.375 102.441406 L 56.363281 102.441406 L 56.363281 122.429688 L 36.375 122.429688 Z M 36.375 102.441406 " clip-rule="nonzero"/></clipPath><clipPath id="07d6e2ef58"><path d="M 46.367188 102.441406 L 49.546875 109.257812 L 56.363281 112.4375 L 49.546875 115.617188 L 46.367188 122.429688 L 43.1875 115.617188 L 36.375 112.4375 L 43.1875 109.257812 Z M 46.367188 102.441406 " clip-rule="nonzero"/></clipPath><clipPath id="f8d67981f5"><path d="M 0.375 0.441406 L 20.363281 0.441406 L 20.363281 20.429688 L 0.375 20.429688 Z M 0.375 0.441406 " clip-rule="nonzero"/></clipPath><clipPath id="1cd7ca26ba"><path d="M 10.367188 0.441406 L 13.546875 7.257812 L 20.363281 10.4375 L 13.546875 13.617188 L 10.367188 20.429688 L 7.1875 13.617188 L 0.375 10.4375 L 7.1875 7.257812 Z M 10.367188 0.441406 " clip-rule="nonzero"/></clipPath><clipPath id="e2bc1684f9"><rect x="0" width="21" y="0" height="21"/></clipPath><clipPath id="9800aaa23a"><path d="M 101.628906 174.050781 L 122.207031 174.050781 L 122.207031 194.777344 L 101.628906 194.777344 Z M 101.628906 174.050781 " clip-rule="nonzero"/></clipPath><clipPath id="34c3051502"><path d="M 0.628906 0.0507812 L 21.207031 0.0507812 L 21.207031 20.777344 L 0.628906 20.777344 Z M 0.628906 0.0507812 " clip-rule="nonzero"/></clipPath><clipPath id="2bc868ed23"><rect x="0" width="22" y="0" height="21"/></clipPath><clipPath id="15b9c4c2ef"><path d="M 121.925781 194.777344 L 134.894531 194.777344 L 134.894531 207.898438 L 121.925781 207.898438 Z M 121.925781 194.777344 " clip-rule="nonzero"/></clipPath><clipPath id="19d9a69aff"><path d="M 0.925781 0.777344 L 13.894531 0.777344 L 13.894531 13.898438 L 0.925781 13.898438 Z M 0.925781 0.777344 " clip-rule="nonzero"/></clipPath><clipPath id="384c53c128"><rect x="0" width="14" y="0" height="14"/></clipPath><clipPath id="b47c9787e5"><path d="M 122.210938 130.128906 L 142.789062 130.128906 L 142.789062 150.859375 L 122.210938 150.859375 Z M 122.210938 130.128906 " clip-rule="nonzero"/></clipPath><clipPath id="b82c0a247c"><path d="M 0.210938 0.128906 L 20.789062 0.128906 L 20.789062 20.859375 L 0.210938 20.859375 Z M 0.210938 0.128906 " clip-rule="nonzero"/></clipPath><clipPath id="71041c8e18"><rect x="0" width="21" y="0" height="21"/></clipPath></defs><g clip-path="url(#3f85f412bc)"><g transform="matrix(1, 0, 0, 1, 101, 174)"><g clip-path="url(#15b388ebe4)"><g clip-path="url(#1696913f53)"><path fill="#ffffff" d="M 0.628906 0.0507812 L 21.207031 0.0507812 L 21.207031 20.789062 L 0.628906 20.789062 Z M 0.628906 0.0507812 " fill-opacity="1" fill-rule="nonzero"/></g></g></g></g><g clip-path="url(#ba76f5ac84)"><g transform="matrix(1, 0, 0, 1, 121, 194)"><g clip-path="url(#a56accdb73)"><g clip-path="url(#58de3d61d0)"><path fill="#ffffff" d="M 0.925781 0.777344 L 13.894531 0.777344 L 13.894531 13.898438 L 0.925781 13.898438 Z M 0.925781 0.777344 " fill-opacity="1" fill-rule="nonzero"/></g></g></g></g><g clip-path="url(#87fc2e8271)"><g transform="matrix(1, 0, 0, 1, 122, 130)"><g clip-path="url(#578d4bff92)"><g clip-path="url(#d66505f013)"><path fill="#ffffff" d="M 0.210938 0.128906 L 20.789062 0.128906 L 20.789062 20.867188 L 0.210938 20.867188 Z M 0.210938 0.128906 " fill-opacity="1" fill-rule="nonzero"/></g></g></g></g><g transform="matrix(1, 0, 0, 1, 87, 27)"><g clip-path="url(#f3fed86fd9)"><g fill="#38b6ff" fill-opacity="1"><g transform="translate(0.547418, 271.443048)"><g><path d="M 151.03125 -102.28125 L 200.0625 -102.28125 L 200.0625 -21.015625 C 188.851562 -12.984375 175.960938 -6.816406 161.390625 -2.515625 C 146.828125 1.773438 132.257812 3.921875 117.6875 3.921875 C 97.132812 3.921875 78.640625 -0.421875 62.203125 -9.109375 C 45.765625 -17.796875 32.875 -29.890625 23.53125 -45.390625 C 14.195312 -60.898438 9.53125 -78.460938 9.53125 -98.078125 C 9.53125 -117.691406 14.195312 -135.25 23.53125 -150.75 C 32.875 -166.25 45.859375 -178.34375 62.484375 -187.03125 C 79.109375 -195.71875 97.882812 -200.0625 118.8125 -200.0625 C 137.113281 -200.0625 153.550781 -196.976562 168.125 -190.8125 C 182.695312 -184.65625 194.835938 -175.785156 204.546875 -164.203125 L 169.25 -132.25 C 155.976562 -146.820312 140.097656 -154.109375 121.609375 -154.109375 C 104.796875 -154.109375 91.25 -149.015625 80.96875 -138.828125 C 70.695312 -128.648438 65.5625 -115.066406 65.5625 -98.078125 C 65.5625 -87.234375 67.894531 -77.5625 72.5625 -69.0625 C 77.238281 -60.570312 83.78125 -53.941406 92.1875 -49.171875 C 100.59375 -44.410156 110.210938 -42.03125 121.046875 -42.03125 C 131.691406 -42.03125 141.6875 -44.175781 151.03125 -48.46875 Z M 151.03125 -102.28125 "/></g></g></g></g></g><g clip-path="url(#b4c90234d9)"><g transform="matrix(1, 0, 0, 1, 68, 174)"><g clip-path="url(#ea07a6a2b6)"><g clip-path="url(#3bd91e4a01)"><path fill="#70cbff" d="M 0.09375 0.0507812 L 13.0625 0.0507812 L 13.0625 13.167969 L 0.09375 13.167969 Z M 0.09375 0.0507812 " fill-opacity="1" fill-rule="nonzero"/></g></g></g></g><g clip-path="url(#fd14d3bf06)"><g transform="matrix(1, 0, 0, 1, 81, 153)"><g clip-path="url(#af015ffc2e)"><g clip-path="url(#0df6d35178)"><path fill="#106efd" d="M 0.0507812 0.320312 L 20.628906 0.320312 L 20.628906 21.058594 L 0.0507812 21.058594 Z M 0.0507812 0.320312 " fill-opacity="1" fill-rule="nonzero"/></g></g></g></g><g clip-path="url(#10649074de)"><g transform="matrix(1, 0, 0, 1, 101, 109)"><g clip-path="url(#b7eb1d1c53)"><g clip-path="url(#e8814b64b9)"><path fill="#70cbff" d="M 0.628906 0.398438 L 21.207031 0.398438 L 21.207031 21.140625 L 0.628906 21.140625 Z M 0.628906 0.398438 " fill-opacity="1" fill-rule="nonzero"/></g></g></g></g><g clip-path="url(#54eb2adca9)"><g transform="matrix(1, 0, 0, 1, 127, 90)"><g clip-path="url(#4ed600cd61)"><g clip-path="url(#b1b28f9764)"><path fill="#106efd" d="M 0.109375 0.421875 L 16.460938 0.421875 L 16.460938 16.898438 L 0.109375 16.898438 Z M 0.109375 0.421875 " fill-opacity="1" fill-rule="nonzero"/></g></g></g></g><g clip-path="url(#38947a6986)"><g transform="matrix(1, 0, 0, 1, 65, 133)"><g clip-path="url(#55b10c9b87)"><g clip-path="url(#781b0208d4)"><path fill="#5ce1e6" d="M 0.644531 0.933594 L 13.613281 0.933594 L 13.613281 14.054688 L 0.644531 14.054688 Z M 0.644531 0.933594 " fill-opacity="1" fill-rule="nonzero"/></g></g></g></g><g clip-path="url(#59309bc25f)"><g transform="matrix(1, 0, 0, 1, 81, 90)"><g clip-path="url(#e7a78a5591)"><g clip-path="url(#a88fd42801)"><path fill="#5ce1e6" d="M 0.0625 0.421875 L 13.03125 0.421875 L 13.03125 13.542969 L 0.0625 13.542969 Z M 0.0625 0.421875 " fill-opacity="1" fill-rule="nonzero"/></g></g></g></g><g clip-path="url(#1fcd614131)"><g clip-path="url(#708a6ee3b1)"><g transform="matrix(1, 0, 0, 1, 52, 87)"><g clip-path="url(#8ecfce0a83)"><g clip-path="url(#d91d6d5ef5)"><g clip-path="url(#d44ae72125)"><path fill="#ff751f" d="M 0.382812 0.925781 L 13.644531 0.925781 L 13.644531 14.1875 L 0.382812 14.1875 Z M 0.382812 0.925781 " fill-opacity="1" fill-rule="nonzero"/></g></g></g></g></g></g><g clip-path="url(#e1c8116453)"><g clip-path="url(#5a0e76f4c6)"><g transform="matrix(1, 0, 0, 1, 36, 72)"><g clip-path="url(#466abbbc03)"><g clip-path="url(#f0a01e4058)"><g clip-path="url(#02203d91ee)"><path fill="#ff751f" d="M 0.375 0.949219 L 20.363281 0.949219 L 20.363281 20.9375 L 0.375 20.9375 Z M 0.375 0.949219 " fill-opacity="1" fill-rule="nonzero"/></g></g></g></g></g></g><g clip-path="url(#e5e3784ebd)"><g clip-path="url(#07d6e2ef58)"><g transform="matrix(1, 0, 0, 1, 36, 102)"><g clip-path="url(#e2bc1684f9)"><g clip-path="url(#f8d67981f5)"><g clip-path="url(#1cd7ca26ba)"><path fill="#ff751f" d="M 0.375 0.441406 L 20.363281 0.441406 L 20.363281 20.429688 L 0.375 20.429688 Z M 0.375 0.441406 " fill-opacity="1" fill-rule="nonzero"/></g></g></g></g></g></g><g clip-path="url(#9800aaa23a)"><g transform="matrix(1, 0, 0, 1, 101, 174)"><g clip-path="url(#2bc868ed23)"><g clip-path="url(#34c3051502)"><path fill="#ffffff" d="M 0.628906 0.0507812 L 21.207031 0.0507812 L 21.207031 20.789062 L 0.628906 20.789062 Z M 0.628906 0.0507812 " fill-opacity="1" fill-rule="nonzero"/></g></g></g></g><g clip-path="url(#15b9c4c2ef)"><g transform="matrix(1, 0, 0, 1, 121, 194)"><g clip-path="url(#384c53c128)"><g clip-path="url(#19d9a69aff)"><path fill="#ffffff" d="M 0.925781 0.777344 L 13.894531 0.777344 L 13.894531 13.898438 L 0.925781 13.898438 Z M 0.925781 0.777344 " fill-opacity="1" fill-rule="nonzero"/></g></g></g></g><g clip-path="url(#b47c9787e5)"><g transform="matrix(1, 0, 0, 1, 122, 130)"><g clip-path="url(#71041c8e18)"><g clip-path="url(#b82c0a247c)"><path fill="#ffffff" d="M 0.210938 0.128906 L 20.789062 0.128906 L 20.789062 20.867188 L 0.210938 20.867188 Z M 0.210938 0.128906 " fill-opacity="1" fill-rule="nonzero"/></g></g></g></g></svg>
